<svg width="60" height="56" viewBox="0 0 60 56" fill="none" xmlns="http://www.w3.org/2000/svg">
<path d="M17.0928 42.8488C14.812 42.8402 12.5312 42.8395 10.2505 42.8466C9.84189 42.8481 9.5452 42.8182 9.36042 42.7571C7.88048 42.2734 7.79367 40.1181 9.25897 39.5502C9.4549 39.4742 9.76867 39.4362 10.2003 39.4362C12.9524 39.4348 15.708 39.4345 18.4671 39.4352C18.5054 39.4352 18.5368 39.4206 18.5612 39.3915C21.0891 36.4062 25.4265 36.436 27.9586 39.3936C27.9698 39.4067 27.9836 39.4172 27.9992 39.4243C28.0147 39.4315 28.0315 39.4352 28.0486 39.4352H36.3143C36.3533 39.4352 36.3858 39.4203 36.4116 39.3904C38.9583 36.4115 43.2716 36.4296 45.8184 39.4C45.8379 39.4235 45.863 39.4352 45.8937 39.4352C47.3531 39.4359 48.8142 39.4355 50.2771 39.4341C50.7101 39.4341 50.8973 39.335 50.9841 38.9014C51.4757 36.4581 51.9543 34.0119 52.4201 31.5628C52.4271 31.5238 52.4114 31.5042 52.373 31.5042C45.8396 31.4979 41.3768 31.4975 38.9845 31.5032C38.1498 31.5042 37.4219 31.0056 37.2389 30.181C37.1935 29.9772 37.2037 29.5762 37.2692 28.9781C37.8842 23.3535 38.4974 17.7285 39.1089 12.1031C39.1801 11.4446 39.2637 10.9567 38.4615 10.9567C29.8349 10.9581 21.2091 10.9581 12.5839 10.9567C12.054 10.9567 11.6698 10.9052 11.4313 10.8022C10.0946 10.2226 10.1051 8.24734 11.4355 7.70078C11.6886 7.59637 12.1049 7.54417 12.6843 7.54417C21.1888 7.54275 29.6931 7.54346 38.1969 7.5463C38.8126 7.54701 39.2794 7.58927 39.5974 7.67308C41.2489 8.10884 42.4192 9.62705 42.5165 11.3253C42.5646 12.1691 42.3502 13.3975 42.2477 14.3926C42.2449 14.4175 42.2561 14.4303 42.2812 14.431C44.0069 14.4338 45.7309 14.4331 47.4531 14.4289C48.377 14.4267 49.0349 14.4782 49.4267 14.5834C50.3862 14.8412 51.1392 15.3916 51.6859 16.2347C51.8978 16.5622 52.1283 17.1073 52.3772 17.8702C53.5249 21.3938 54.6733 24.9175 55.8224 28.4412C56.0431 29.1188 56.2721 29.4533 56.1194 30.2172C55.5323 33.167 54.9512 36.1178 54.3759 39.0697C54.2441 39.7488 54.097 40.257 53.9346 40.5943C53.4074 41.6882 52.5589 42.3931 51.3888 42.7092C51.0514 42.8001 50.5849 42.8452 49.9894 42.8445C49.0823 42.8424 48.1762 42.8427 47.2711 42.8456C47.2335 42.8463 47.2161 42.8658 47.2188 42.9042C47.4772 46.5063 44.806 49.5438 41.2666 49.6589C39.7961 49.7065 38.4838 49.2665 37.3299 48.3388C35.6606 46.9978 34.8825 45.1888 34.9954 42.9116C34.9975 42.8669 34.9766 42.8445 34.9327 42.8445H29.4145C29.381 42.8445 29.3657 42.8612 29.3685 42.8946C29.4731 44.3933 29.1286 45.735 28.3351 46.9197C26.2297 50.0605 21.8861 50.5847 19.1333 48.0427C17.6928 46.7137 17.0304 45.0016 17.1461 42.9063C17.1482 42.8679 17.1304 42.8488 17.0928 42.8488ZM52.2224 27.949C51.1486 24.7435 50.0815 21.5629 49.0209 18.4071C48.8306 17.8414 48.6308 17.8467 48.1047 17.8446C46.0527 17.8346 43.995 17.835 41.9318 17.8456C41.8879 17.8456 41.8638 17.8677 41.8597 17.9117L40.7583 27.934C40.7534 27.9788 40.773 28.0012 40.8169 28.0012H52.1858C52.2221 28.0012 52.2343 27.9838 52.2224 27.949ZM26.0425 43.4124C26.0425 42.6602 25.7492 41.9388 25.227 41.4069C24.7049 40.875 23.9967 40.5762 23.2583 40.5762C22.5199 40.5762 21.8118 40.875 21.2896 41.4069C20.7675 41.9388 20.4742 42.6602 20.4742 43.4124C20.4742 43.7848 20.5462 44.1536 20.6861 44.4977C20.826 44.8418 21.0311 45.1545 21.2896 45.4178C21.5482 45.6812 21.8551 45.8901 22.1929 46.0326C22.5307 46.1751 22.8927 46.2485 23.2583 46.2485C23.624 46.2485 23.986 46.1751 24.3238 46.0326C24.6616 45.8901 24.9685 45.6812 25.227 45.4178C25.4856 45.1545 25.6907 44.8418 25.8306 44.4977C25.9705 44.1536 26.0425 43.7848 26.0425 43.4124ZM43.8929 43.4124C43.8929 42.6602 43.5995 41.9388 43.0774 41.4069C42.5553 40.875 41.8471 40.5762 41.1087 40.5762C40.3703 40.5762 39.6621 40.875 39.14 41.4069C38.6178 41.9388 38.3245 42.6602 38.3245 43.4124C38.3245 43.7848 38.3965 44.1536 38.5364 44.4977C38.6764 44.8418 38.8814 45.1545 39.14 45.4178C39.3985 45.6812 39.7054 45.8901 40.0432 46.0326C40.381 46.1751 40.7431 46.2485 41.1087 46.2485C41.4743 46.2485 41.8364 46.1751 42.1742 46.0326C42.512 45.8901 42.8189 45.6812 43.0774 45.4178C43.3359 45.1545 43.541 44.8418 43.681 44.4977C43.8209 44.1536 43.8929 43.7848 43.8929 43.4124Z" fill="black" stroke="#FEFEFE" stroke-width="2"/>
<path d="M14.9058 15.4839H7.37301C6.3855 15.4839 5.58496 16.2254 5.58496 17.1402V17.2541C5.58496 18.1689 6.3855 18.9104 7.37301 18.9104H14.9058C15.8933 18.9104 16.6938 18.1689 16.6938 17.2541V17.1402C16.6938 16.2254 15.8933 15.4839 14.9058 15.4839Z" fill="black" stroke="#FEFEFE"/>
<path d="M17.3607 23.5063H4.91751C3.91783 23.5063 3.10742 24.257 3.10742 25.1831V25.2648C3.10742 26.1908 3.91783 26.9415 4.91751 26.9415H17.3607C18.3604 26.9415 19.1708 26.1908 19.1708 25.2648V25.1831C19.1708 24.257 18.3604 23.5063 17.3607 23.5063Z" fill="black" stroke="#FEFEFE"/>
<path d="M19.8453 31.5366L9.86428 31.5205C8.86973 31.5189 8.06207 32.2644 8.06033 33.1857L8.06015 33.2824C8.05842 34.2037 8.86326 34.9518 9.85782 34.9535L19.8388 34.9696C20.8334 34.9712 21.641 34.2257 21.6428 33.3044L21.643 33.2077C21.6447 32.2864 20.8399 31.5382 19.8453 31.5366Z" fill="black" stroke="#FEFEFE"/>
</svg>
