<svg width="62" height="62" viewBox="0 0 62 62" fill="none" xmlns="http://www.w3.org/2000/svg">
<g filter="url(#filter0_d_7_25)">
<path d="M31.5192 2.56039C23.0913 2.30028 15.0844 6.16855 10.1213 12.9012C9.97475 13.1011 9.84541 13.2283 9.73328 13.2828C9.29578 13.4956 8.71318 13.0571 8.81431 12.6013C8.84216 12.4738 8.94512 12.29 9.1232 12.05C15.5615 3.3751 26.7155 -0.57056 37.3321 2.05415C52.4423 5.78914 61.211 21.7266 55.7763 36.2173C50.1691 51.1669 32.292 57.8523 17.9337 50.1662C17.7065 50.0444 17.5581 49.9248 17.4885 49.8073C17.2697 49.4375 17.5764 48.8829 18.0238 48.87C18.1542 48.8664 18.3283 48.9212 18.5459 49.0345C24.7974 52.2933 32.0447 53.0403 38.8072 50.7864C49.9877 47.06 57.0998 36.3323 55.9159 24.8285C54.6463 12.4917 44.1771 2.9527 31.5192 2.56039Z" fill="black"/>
<path d="M31.7733 8.0547C37.0563 10.7704 42.3374 13.4897 47.6167 16.2126C48.6049 16.7231 48.8908 17.3605 48.8919 18.4503C48.8941 24.3239 48.8941 30.1974 48.8919 36.0709C48.8919 37.1812 48.6599 37.8616 47.6563 38.3786C42.4451 41.0663 37.2329 43.7519 32.0195 46.4354C31.128 46.8933 30.5026 46.9535 29.6353 46.5074C24.4791 43.8526 19.3243 41.1964 14.1711 38.5387C13.2334 38.055 12.6123 37.5456 12.6112 36.517C12.6098 30.5395 12.6101 24.5618 12.6123 18.5836C12.6131 18.0068 12.6629 17.5898 12.7618 17.3325C12.934 16.8883 13.2319 16.5569 13.6555 16.3383C18.9246 13.6219 24.1947 10.9069 29.466 8.19335C30.3113 7.75805 30.9478 7.63015 31.7733 8.0547ZM30.4718 9.13167C25.2394 11.8252 19.9839 14.4864 14.7745 17.2229C14.7691 17.2258 14.7645 17.2301 14.7614 17.2354C14.7582 17.2407 14.7566 17.2467 14.7567 17.2528C14.7569 17.2589 14.7587 17.2648 14.762 17.27C14.7653 17.2751 14.7701 17.2793 14.7756 17.282L18.8077 19.279C18.8216 19.2858 18.8371 19.2888 18.8526 19.2877C18.8681 19.2866 18.8829 19.2813 18.8956 19.2726C19.095 19.135 19.236 19.0454 19.3188 19.0039C24.5564 16.4128 29.7903 13.8233 35.0205 11.2351C35.0255 11.2324 35.0297 11.2285 35.0327 11.2236C35.0356 11.2188 35.0372 11.2133 35.0372 11.2077C35.0372 11.2021 35.0356 11.1966 35.0327 11.1917C35.0297 11.1869 35.0255 11.1829 35.0205 11.1803C33.7593 10.5282 32.4937 9.87652 31.2237 9.22518C30.9972 9.1091 30.6773 9.02634 30.4718 9.13167ZM36.4561 11.9713C30.984 14.6648 25.5219 17.3777 20.0575 20.0862C19.6475 20.2894 19.4595 20.4861 19.4595 20.9321C19.4581 23.6693 19.4581 26.4004 19.4595 29.1254C19.4595 29.1344 19.4615 29.1432 19.4654 29.1512C19.4694 29.1593 19.4751 29.1664 19.4823 29.1721C19.4894 29.1777 19.4978 29.1818 19.5068 29.1839C19.5158 29.1861 19.5252 29.1863 19.5343 29.1846C20.3983 29.0072 21.1689 28.7073 21.8592 29.4393C22.3187 29.9273 22.7793 30.3995 23.2409 30.8559C23.2486 30.8636 23.2584 30.869 23.2691 30.8712C23.2799 30.8734 23.2911 30.8724 23.3012 30.8684C23.3114 30.8643 23.3201 30.8574 23.3262 30.8485C23.3323 30.8395 23.3355 30.829 23.3355 30.8183C23.3384 28.3749 23.3457 25.9304 23.3575 23.4848C23.3619 22.5927 23.7536 21.9539 24.5326 21.5684C29.7261 18.9981 34.9168 16.4297 40.1045 13.863C40.1105 13.86 40.1156 13.8554 40.1192 13.8498C40.1228 13.8442 40.1247 13.8377 40.1248 13.8311C40.1249 13.8245 40.1232 13.8179 40.1198 13.8122C40.1164 13.8065 40.1115 13.8017 40.1056 13.7985L36.5572 11.9724C36.5235 11.9545 36.4898 11.9541 36.4561 11.9713ZM41.5456 14.596L25.5142 22.5282C25.4702 22.5504 25.4702 22.5723 25.5142 22.5938C27.1374 23.4056 28.7654 24.2081 30.3981 25.0014C30.6473 25.1232 30.8466 25.1468 30.9961 25.0723C36.2513 22.4734 41.5009 19.8759 46.745 17.2799C46.7504 17.2773 46.755 17.2732 46.7581 17.2682C46.7613 17.2632 46.763 17.2574 46.763 17.2514C46.763 17.2454 46.7613 17.2395 46.7581 17.2343C46.755 17.2291 46.7504 17.2248 46.745 17.2218L41.6533 14.596C41.6174 14.5781 41.5815 14.5781 41.5456 14.596ZM30.0552 26.2868L24.7095 23.6439C24.704 23.6411 24.6977 23.6398 24.6915 23.64C24.6852 23.6403 24.6791 23.6421 24.6738 23.6454C24.6685 23.6486 24.6641 23.6532 24.6611 23.6586C24.6582 23.6639 24.6567 23.67 24.6568 23.6761C24.6612 25.9712 24.6604 28.2685 24.6546 30.5679C24.6538 30.9491 24.6047 31.2342 24.5073 31.4234C24.194 32.0307 23.3652 32.3273 22.7397 32.0532C22.555 31.9723 22.2971 31.7627 21.9658 31.4245C21.5928 31.0433 21.2183 30.6617 20.8424 30.2798C20.816 30.2526 20.7841 30.2429 20.7468 30.2508C20.2752 30.3443 19.7299 30.5216 19.2903 30.4442C18.3933 30.2873 18.1415 29.6274 18.1415 28.7869C18.1408 26.16 18.1408 23.5328 18.1415 20.9052C18.1415 20.8049 18.1558 20.663 18.1844 20.4796C18.191 20.4395 18.1756 20.4105 18.1382 20.3925L13.9787 18.3332C13.9736 18.3308 13.968 18.3296 13.9624 18.3299C13.9568 18.3301 13.9514 18.3317 13.9466 18.3345C13.9419 18.3373 13.938 18.3412 13.9353 18.3459C13.9327 18.3505 13.9313 18.3558 13.9314 18.3611C13.9322 24.3572 13.9322 30.3457 13.9314 36.3267C13.9314 36.7115 14.0161 36.9996 14.3568 37.1758C17.4215 38.7644 22.6492 41.4565 30.0398 45.252C30.075 45.2699 30.0925 45.2595 30.0925 45.2209V26.346C30.0925 26.3187 30.0801 26.299 30.0552 26.2868ZM47.5101 18.3472L31.4567 26.2901C31.4259 26.3058 31.4105 26.3309 31.4105 26.3653V45.2488C31.4105 45.2782 31.4237 45.2861 31.4501 45.2724C36.6789 42.5789 41.9116 39.8815 47.1484 37.1801C47.4518 37.0232 47.5717 36.7416 47.5728 36.3923C47.5757 30.3905 47.5757 24.388 47.5728 18.3848C47.5728 18.3389 47.5519 18.3264 47.5101 18.3472Z" fill="black"/>
<path d="M8.63607 13.2062C8.65817 13.3274 8.7279 13.4352 8.83027 13.5066C8.93265 13.5779 9.05948 13.6071 9.1835 13.5878C10.2336 13.4244 11.3025 13.2563 12.39 13.0837C12.6399 13.0443 12.8264 13.0446 12.9495 13.0847C13.3727 13.2223 13.4991 13.8446 13.1837 14.1381C13.0803 14.2341 12.9044 14.3025 12.656 14.3433C11.677 14.506 10.6968 14.6611 9.71553 14.8087C8.81525 14.9442 8.05017 14.7991 7.5775 14.0263C7.43826 13.7984 7.32064 13.3914 7.22464 12.8053C7.0898 11.9827 6.95423 11.1601 6.81792 10.3375C6.77175 10.0623 6.76406 9.8653 6.79483 9.74635C6.91905 9.26806 7.70281 9.1638 7.96223 9.5733C8.02746 9.67505 8.08278 9.87318 8.12822 10.1677C8.28798 11.2067 8.45726 12.2195 8.63607 13.2062Z" fill="black"/>
<path d="M4.73008 27.8972L4.6797 27.9015C4.33074 27.9314 4.0726 28.2322 4.10313 28.5734L4.29704 30.7405C4.32757 31.0817 4.63521 31.3341 4.98417 31.3043L5.03455 31.3C5.38351 31.2701 5.64165 30.9693 5.61112 30.6281L5.41721 28.461C5.38668 28.1198 5.07904 27.8674 4.73008 27.8972Z" fill="black"/>
<path d="M5.19288 32.179L5.14827 32.1906C4.80858 32.2789 4.60647 32.6198 4.69686 32.952L5.26612 35.0439C5.3565 35.376 5.70515 35.5736 6.04484 35.4853L6.08946 35.4736C6.42914 35.3853 6.63125 35.0444 6.54086 34.7122L5.9716 32.6203C5.88122 32.2882 5.53257 32.0906 5.19288 32.179Z" fill="black"/>
<path d="M6.3858 36.3012L6.34585 36.3191C6.0254 36.4632 5.88511 36.8341 6.0325 37.1474L6.96037 39.1199C7.10776 39.4332 7.48702 39.5704 7.80747 39.4263L7.84742 39.4083C8.16787 39.2642 8.30816 38.8934 8.16077 38.5801L7.23291 36.6076C7.08552 36.2942 6.70625 36.1571 6.3858 36.3012Z" fill="black"/>
<path d="M8.27981 40.1679L8.2453 40.1909C7.95342 40.3856 7.87821 40.7748 8.07732 41.0602L9.33481 42.8627C9.53392 43.1481 9.93195 43.2216 10.2238 43.0269L10.2583 43.0039C10.5502 42.8092 10.6254 42.42 10.4263 42.1346L9.16884 40.3322C8.96973 40.0468 8.5717 39.9732 8.27981 40.1679Z" fill="black"/>
<path d="M10.8205 43.6886L10.7905 43.717C10.5367 43.9574 10.5304 44.3535 10.7763 44.6016L12.3322 46.1715C12.5781 46.4196 12.9832 46.4258 13.2369 46.1854L13.2669 46.157C13.5206 45.9166 13.527 45.5205 13.2811 45.2724L11.7251 43.7025C11.4792 43.4544 11.0742 43.4482 10.8205 43.6886Z" fill="black"/>
<path d="M16.6061 47.8867L14.827 46.5948C14.5428 46.3885 14.1414 46.4464 13.9304 46.7243L13.9068 46.7553C13.6958 47.0331 13.7551 47.4256 14.0392 47.632L15.8183 48.9239C16.1025 49.1302 16.5039 49.0723 16.7149 48.7944L16.7385 48.7634C16.9495 48.4856 16.8902 48.0931 16.6061 47.8867Z" fill="black"/>
</g>
<defs>
<filter id="filter0_d_7_25" x="-2.10547" y="0" width="64.2812" height="63.0308" filterUnits="userSpaceOnUse" color-interpolation-filters="sRGB">
<feFlood flood-opacity="0" result="BackgroundImageFix"/>
<feColorMatrix in="SourceAlpha" type="matrix" values="0 0 0 0 0 0 0 0 0 0 0 0 0 0 0 0 0 0 127 0" result="hardAlpha"/>
<feOffset dy="4"/>
<feGaussianBlur stdDeviation="2"/>
<feComposite in2="hardAlpha" operator="out"/>
<feColorMatrix type="matrix" values="0 0 0 0 0 0 0 0 0 0 0 0 0 0 0 0 0 0 0.25 0"/>
<feBlend mode="normal" in2="BackgroundImageFix" result="effect1_dropShadow_7_25"/>
<feBlend mode="normal" in="SourceGraphic" in2="effect1_dropShadow_7_25" result="shape"/>
</filter>
</defs>
</svg>
