<svg width="110" height="85" viewBox="0 0 110 85" fill="none" xmlns="http://www.w3.org/2000/svg">
<path d="M47.3607 28.2681C47.5988 28.2681 47.6828 28.1464 47.6125 27.9032C45.4429 20.3477 39.2562 14.4309 31.6729 14.2611C29.679 14.2139 27.849 14.2139 25.9869 14.7895C16.231 17.8218 11.2184 28.202 13.9356 38.7301C14.08 39.29 14.3396 39.9694 14.7144 40.7684C14.7593 40.8627 14.732 40.9162 14.6324 40.9288L1.46848 42.5267C1.41166 42.534 1.35426 42.5198 1.30616 42.4865C1.25806 42.4532 1.22228 42.4029 1.20497 42.3443C0.0513653 38.3683 -0.150663 34.3358 0.0894267 30.0893C0.657443 20.0268 6.05653 11.0558 13.6955 5.4536C17.8355 2.41817 22.3797 0.732169 27.4069 0.219449C38.4354 -0.906648 47.5266 3.14793 54.6805 12.3832C54.707 12.417 54.7402 12.4441 54.7776 12.4625C54.8151 12.4809 54.8559 12.4902 54.8971 12.4896C54.9383 12.489 54.9788 12.4785 55.0158 12.4591C55.0527 12.4396 55.0852 12.4115 55.1109 12.3769C60.4163 5.22712 67.8532 0.854844 76.309 0.118792C90.2986 -1.09538 102.13 7.08298 107.714 20.7534C107.89 21.1812 107.768 21.4633 107.348 21.5996C103.612 22.8116 99.7617 24.0027 95.7973 25.1729C95.3971 25.2903 95.1326 25.2148 95.0038 24.9464C93.2997 21.3878 90.85 18.582 87.6547 16.529C84.6917 14.6259 81.3714 14.0535 77.9077 14.2265C74.1014 14.4152 70.663 15.9303 67.5926 18.7717C63.5423 22.5233 61.5201 27.2898 61.526 33.0713C61.5261 33.1235 61.5092 33.1742 61.4782 33.2144C61.4471 33.2546 61.4039 33.2819 61.3561 33.2915C51.2099 35.2543 41.0344 37.0147 30.8297 38.5728C30.807 38.5765 30.7839 38.5748 30.7619 38.5679C30.74 38.561 30.7196 38.5491 30.7024 38.5329C30.6851 38.5168 30.6713 38.4968 30.662 38.4743C30.6526 38.4519 30.6479 38.4275 30.6481 38.4029L30.7184 28.5763C30.7203 28.3331 30.8336 28.2125 31.058 28.2146L47.3607 28.2681Z" fill="white"/>
<path d="M87.8 49.2927C93.4978 45.6281 96.3818 40.0543 96.6394 32.9517C96.6418 32.9013 96.6604 32.8534 96.692 32.8166C96.7236 32.7797 96.7662 32.7563 96.8122 32.7504C97.3372 32.677 98.0204 32.527 98.8617 32.3006C102.44 31.3359 105.999 30.3357 109.54 29.2997C109.555 29.2953 109.571 29.2947 109.587 29.2979C109.602 29.301 109.617 29.3079 109.629 29.318C109.642 29.328 109.652 29.341 109.659 29.3558C109.665 29.3707 109.669 29.387 109.669 29.4035C109.673 30.733 109.669 32.072 109.657 33.4204C109.593 41.3681 107.259 48.2421 102.656 54.0424C96.9673 61.2111 89.6534 65.4135 80.7145 65.8885C77.2478 66.073 73.8534 65.6934 70.5312 64.7498C70.4886 64.7379 70.4509 64.7108 70.4239 64.6727C70.3968 64.6346 70.3821 64.5876 70.3818 64.539L70.3526 49.5412C70.3523 49.5267 70.3556 49.5124 70.3622 49.4997C70.3688 49.4871 70.3784 49.4766 70.39 49.4692C70.4016 49.4618 70.4148 49.4579 70.4283 49.4579C70.4418 49.4578 70.4551 49.4616 70.4667 49.4688C75.819 52.6773 82.6235 52.6269 87.8 49.2927Z" fill="white"/>
<path d="M48.3742 60.5474C48.374 60.4984 48.3614 60.4504 48.3379 60.4085C48.3143 60.3666 48.2806 60.3324 48.2403 60.3095C48.2 60.2865 48.1547 60.2758 48.1092 60.2784C48.0637 60.2809 48.0197 60.2967 47.9819 60.324C36.6508 68.4646 21.0889 67.8387 10.7856 58.0939C7.8108 55.2818 5.28986 52.023 3.375 48.283C3.21494 47.9684 3.30082 47.7954 3.63265 47.764L18.0995 46.3736C18.1865 46.3659 18.2739 46.3788 18.3554 46.4114C18.437 46.444 18.5105 46.4956 18.5709 46.5624C21.3095 49.5569 24.6737 51.2702 28.6634 51.7022C34.2441 52.3061 39.0068 50.5572 42.9517 46.4554C43.0083 46.3946 43.0649 46.3957 43.1215 46.4586L47.8764 51.7116C47.9152 51.7547 47.9651 51.7844 48.0197 51.7969C48.0742 51.8095 48.1311 51.8043 48.1829 51.782C48.2347 51.7598 48.2792 51.7214 48.3106 51.6719C48.3421 51.6224 48.3591 51.5639 48.3596 51.504L48.4005 42.5801C48.4008 42.5352 48.4159 42.4918 48.4433 42.4577C48.4707 42.4237 48.5085 42.4013 48.5499 42.3946L61.3888 40.3563C61.4073 40.353 61.4263 40.3542 61.4444 40.3597C61.4625 40.3652 61.4792 40.3749 61.4935 40.3881C61.5077 40.4013 61.5191 40.4177 61.5268 40.4361C61.5345 40.4545 61.5384 40.4745 61.5381 40.4947L61.5352 84.6609C61.5352 84.6926 61.5232 84.7231 61.5017 84.7455C61.4803 84.7679 61.4513 84.7805 61.421 84.7805L48.5967 84.7868C48.5385 84.7868 48.4826 84.7619 48.4414 84.7177C48.4003 84.6734 48.3771 84.6134 48.3771 84.5509L48.3742 60.5474Z" fill="white"/>
</svg>
