<svg width="417" height="37" viewBox="0 0 417 37" fill="none" xmlns="http://www.w3.org/2000/svg">
<path d="M3.6123 33.3633H22.5088V36H0.711914V2.60156H22.0693V5.23828H3.6123V17.6309H18.1143V20.0918H3.6123V33.3633ZM29.1006 36V0.84375H31.9131V36H29.1006ZM42.1963 23.8711C42.6357 30.1113 46.5029 33.8906 52.6553 33.8906C56.2588 33.8906 59.5986 32.3086 61.4443 29.8477L63.3779 31.6055C61.4443 33.9785 57.4893 36.4395 52.6553 36.4395C44.1299 36.4395 39.2959 30.6387 39.2959 22.8164C39.2959 14.8184 44.7451 9.19336 51.9521 9.19336C59.335 9.19336 64.0811 14.5547 64.0811 22.8164V23.8711H42.1963ZM51.9521 11.6543C46.5029 11.6543 42.7236 15.5215 42.2842 21.498H61.2686C60.8291 15.4336 57.3135 11.6543 51.9521 11.6543ZM81.835 36.4395C74.3643 36.4395 69.1787 30.8145 69.1787 22.8164C69.1787 14.9062 74.4521 9.19336 81.835 9.19336C87.5479 9.19336 91.6787 12.2695 93.1729 17.1914L90.5361 18.0703C89.3057 14.291 86.1416 11.6543 81.835 11.6543C76.1221 11.6543 72.0791 16.2246 72.0791 22.8164C72.0791 29.4082 76.1221 33.9785 81.835 33.9785C86.0537 33.9785 89.3936 31.3418 90.624 27.5625L93.1729 28.4414C91.6787 33.3633 87.46 36.4395 81.835 36.4395ZM110.048 36.4395C102.577 36.4395 97.3916 30.8145 97.3916 22.8164C97.3916 14.9062 102.665 9.19336 110.048 9.19336C115.761 9.19336 119.892 12.2695 121.386 17.1914L118.749 18.0703C117.519 14.291 114.354 11.6543 110.048 11.6543C104.335 11.6543 100.292 16.2246 100.292 22.8164C100.292 29.4082 104.335 33.9785 110.048 33.9785C114.267 33.9785 117.606 31.3418 118.837 27.5625L121.386 28.4414C119.892 33.3633 115.673 36.4395 110.048 36.4395ZM128.329 4.97461V1.63477H131.669V4.97461H128.329ZM128.681 36V9.63281H131.493V36H128.681ZM151.356 6.46875L154.169 0.84375H157.597L153.642 6.46875H151.356ZM152.06 36.4395C144.413 36.4395 139.315 30.9902 139.315 22.8164C139.315 14.8184 144.501 9.19336 152.06 9.19336C159.706 9.19336 164.804 14.6426 164.804 22.8164C164.804 30.8145 159.618 36.4395 152.06 36.4395ZM152.06 33.9785C157.948 33.9785 161.903 29.4961 161.903 22.8164C161.903 16.0488 158.036 11.6543 152.06 11.6543C146.171 11.6543 142.216 16.1367 142.216 22.8164C142.216 29.584 146.171 33.9785 152.06 33.9785ZM184.667 9.19336C190.556 9.19336 194.687 13.0605 194.687 20.0918V36H191.874V20.707C191.874 14.7305 188.71 11.6543 183.964 11.6543C179.042 11.6543 175.087 15.6973 175.087 20.5312V36H172.274V9.63281H174.647L174.999 14.291C176.845 11.2148 180.448 9.19336 184.667 9.19336ZM232.216 2.60156C238.72 2.60156 243.026 6.55664 243.026 12.4453C243.026 18.334 238.72 22.2891 232.216 22.2891H221.757V36H218.856V2.60156H232.216ZM231.952 19.7402C237.05 19.7402 240.038 17.0156 240.038 12.4453C240.038 7.96289 237.05 5.15039 231.952 5.15039H221.757V19.7402H231.952ZM249.794 23.8711C250.233 30.1113 254.101 33.8906 260.253 33.8906C263.856 33.8906 267.196 32.3086 269.042 29.8477L270.976 31.6055C269.042 33.9785 265.087 36.4395 260.253 36.4395C251.728 36.4395 246.894 30.6387 246.894 22.8164C246.894 14.8184 252.343 9.19336 259.55 9.19336C266.933 9.19336 271.679 14.5547 271.679 22.8164V23.8711H249.794ZM259.55 11.6543C254.101 11.6543 250.321 15.5215 249.882 21.498H268.866C268.427 15.4336 264.911 11.6543 259.55 11.6543ZM291.454 9.19336C291.981 9.19336 292.509 9.19336 293.124 9.28125V12.0059C292.333 11.918 291.278 11.918 290.751 11.918C285.478 11.918 281.786 15.5215 281.786 20.7949V36H278.974V9.63281H281.347L281.698 14.291C283.544 11.127 287.147 9.19336 291.454 9.19336ZM308.329 3.30469C305.517 3.30469 303.935 4.71094 303.935 7.43555V9.63281H312.372V12.1816H303.935V36H301.122V12.1816H295.497V9.63281H301.122V7.43555C301.122 3.39258 303.935 0.755859 308.329 0.755859C310.702 0.755859 312.812 1.37109 314.745 2.77734L313.251 5.0625C311.581 3.83203 310.175 3.30469 308.329 3.30469ZM317.206 23.8711C317.646 30.1113 321.513 33.8906 327.665 33.8906C331.269 33.8906 334.608 32.3086 336.454 29.8477L338.388 31.6055C336.454 33.9785 332.499 36.4395 327.665 36.4395C319.14 36.4395 314.306 30.6387 314.306 22.8164C314.306 14.8184 319.755 9.19336 326.962 9.19336C334.345 9.19336 339.091 14.5547 339.091 22.8164V23.8711H317.206ZM326.962 11.6543C321.513 11.6543 317.733 15.5215 317.294 21.498H336.278C335.839 15.4336 332.323 11.6543 326.962 11.6543ZM356.845 36.4395C349.374 36.4395 344.188 30.8145 344.188 22.8164C344.188 14.9062 349.462 9.19336 356.845 9.19336C362.558 9.19336 366.688 12.2695 368.183 17.1914L365.546 18.0703C364.315 14.291 361.151 11.6543 356.845 11.6543C351.132 11.6543 347.089 16.2246 347.089 22.8164C347.089 29.4082 351.132 33.9785 356.845 33.9785C361.063 33.9785 364.403 31.3418 365.634 27.5625L368.183 28.4414C366.688 33.3633 362.47 36.4395 356.845 36.4395ZM388.573 12.1816H379.696V29.584C379.696 32.5723 380.927 33.8906 383.915 33.8906C385.409 33.8906 386.728 33.7148 388.573 33.1875V35.8242C386.815 36.2637 385.233 36.4395 383.563 36.4395C379.257 36.4395 376.884 34.0664 376.884 29.7598V12.1816H371.698V9.63281H376.884L377.323 2.60156H379.696V9.63281H388.573V12.1816ZM415.116 33.627H416.083V36C415.995 36.0879 415.292 36.1758 415.028 36.1758C412.04 36.1758 410.81 34.8574 410.722 31.6055C408.876 34.418 405.097 36.4395 400.79 36.4395C395.692 36.4395 392.44 33.627 392.44 29.2324C392.44 22.9922 398.329 21.9375 403.339 20.8828C407.206 20.0918 410.458 19.5645 410.458 16.8398C410.458 13.7637 407.733 11.6543 403.69 11.6543C400.175 11.6543 397.274 13.1484 395.077 16.0488L392.968 14.1152C395.604 10.9512 399.472 9.19336 403.778 9.19336C409.667 9.19336 413.271 12.3574 413.271 17.6309V31.6055C413.271 33.0996 413.798 33.627 415.116 33.627ZM400.878 33.8906C406.327 33.8906 410.634 30.2871 410.634 25.6289V20.7949C408.964 22.1133 406.327 22.7285 403.603 23.168C399.472 23.959 395.341 24.75 395.341 29.2324C395.341 32.1328 397.362 33.8906 400.878 33.8906Z" fill="#171717"/>
</svg>
