<svg width="60" height="60" viewBox="0 0 60 60" fill="none" xmlns="http://www.w3.org/2000/svg">
<path d="M51.9306 26.571C52.131 24.2867 52.0211 22.0186 51.6011 19.7667C51.5977 19.7488 51.5875 19.7328 51.5725 19.7222C51.5576 19.7116 51.5391 19.7072 51.521 19.7099C42.3612 21.0617 33.6505 17.0272 28.9383 9.05902C28.9112 9.0126 28.8837 9.0126 28.8559 9.05902C24.4361 16.447 16.5202 20.6057 7.9011 19.8944C7.882 19.893 7.86302 19.8984 7.84752 19.9097C7.83202 19.9209 7.821 19.9373 7.8164 19.9559C7.29424 22.2201 7.11786 24.5118 7.28728 26.831C7.29037 26.8751 7.30778 26.8816 7.33949 26.8507C9.20186 25.0092 11.1733 24.0403 13.8525 24.2422C14.4907 24.291 15.0315 24.5451 15.0315 25.2378C15.0299 30.5893 15.0295 35.9405 15.0303 41.2913C15.0303 41.5698 14.9808 41.7836 14.8818 41.9329C14.3561 42.7231 12.5982 42.5862 11.8034 42.4006C5.77534 40.9931 3.43259 34.5902 5.73589 29.2352C5.75136 29.1996 5.756 29.1629 5.74981 29.125C4.7844 23.184 5.8117 17.7137 8.8317 12.7141C15.1405 2.2698 27.6282 -1.92951 38.9359 2.95789C39.6367 3.26113 40.3391 3.5868 41.0431 3.93491C47.758 7.25467 52.5572 13.3999 53.6039 20.8285C53.9589 23.3518 53.9125 25.9305 53.4646 28.5645C53.4586 28.6015 53.4642 28.6396 53.4809 28.6736C55.6414 32.9379 54.7422 38.0202 51.0697 41.1207C51.0417 41.1449 51.0215 41.1768 51.0116 41.2124C48.7849 49.1086 42.2231 54.6295 34.0914 55.6158C34.0519 55.6212 34.0272 55.6429 34.0171 55.6808C33.7 56.8504 33.0459 57.6572 32.055 58.1013C28.5205 59.6863 25.5025 55.2271 28.2409 52.52C28.6981 52.0674 29.2454 51.777 29.8828 51.6486C31.6094 51.3005 33.1724 52.2079 33.8292 53.8567C33.8431 53.8915 33.869 53.907 33.9069 53.9031C40.6683 53.0839 46.3447 48.7744 48.7559 42.3808C48.7729 42.3352 48.7582 42.3197 48.7118 42.3344C47.4896 42.7158 46.3281 42.7831 45.2273 42.5363C44.6216 42.4006 44.5578 41.9039 44.5578 41.3249C44.557 36.0561 44.5574 30.7881 44.5589 25.5209C44.5589 24.8769 44.7597 24.4267 45.4304 24.3594C47.9359 24.1103 50.088 24.8533 51.8865 26.5884C51.9128 26.6132 51.9275 26.6074 51.9306 26.571ZM20.9597 4.62996C14.9943 6.99824 10.2473 11.8578 8.31535 18.1214C8.30374 18.1585 8.31728 18.1782 8.35596 18.1805C16.6687 18.748 24.2319 14.3351 27.9856 6.95298C28.3894 6.1593 29.3177 5.96436 29.7644 6.86712C33.6655 14.7436 41.86 19.1344 50.609 17.9984C50.6399 17.9945 50.6504 17.9779 50.6403 17.9485C49.4398 14.3699 47.5035 11.3511 44.8316 8.89193C38.5251 3.08901 28.9545 1.45524 20.9597 4.62996ZM7.01459 30.9015C5.73589 35.1495 8.10765 40.7355 13.1714 40.7842C13.2109 40.785 13.2306 40.7656 13.2306 40.7262V26.0814C13.2306 26.0442 13.212 26.0253 13.1749 26.0245C10.1742 25.9433 7.8396 28.1607 7.01459 30.9015ZM51.7183 29.2747C50.6241 27.3578 48.5912 25.9456 46.325 26.0222C46.2871 26.0237 46.2681 26.0431 46.2681 26.0802V40.7006C46.2681 40.744 46.2898 40.766 46.3331 40.7668C49.4533 40.8271 51.8355 38.3637 52.5572 35.4744C53.1049 33.2814 52.8253 31.2148 51.7183 29.2747ZM32.1316 54.9985C32.1316 54.5698 31.9613 54.1587 31.6581 53.8556C31.355 53.5524 30.9439 53.3821 30.5152 53.3821C30.0865 53.3821 29.6754 53.5524 29.3722 53.8556C29.0691 54.1587 28.8988 54.5698 28.8988 54.9985C28.8988 55.4272 29.0691 55.8383 29.3722 56.1414C29.6754 56.4446 30.0865 56.6149 30.5152 56.6149C30.9439 56.6149 31.355 56.4446 31.6581 56.1414C31.9613 55.8383 32.1316 55.4272 32.1316 54.9985Z" fill="black"/>
<path d="M25.0298 26.2844C25.0298 27.0501 24.7256 27.7844 24.1842 28.3258C23.6428 28.8672 22.9085 29.1714 22.1428 29.1714C21.7637 29.1714 21.3883 29.0967 21.038 28.9516C20.6878 28.8065 20.3695 28.5939 20.1014 28.3258C19.8334 28.0577 19.6207 27.7395 19.4756 27.3892C19.3305 27.0389 19.2559 26.6635 19.2559 26.2844C19.2559 25.9053 19.3305 25.5299 19.4756 25.1796C19.6207 24.8294 19.8334 24.5111 20.1014 24.243C20.3695 23.975 20.6878 23.7623 21.038 23.6172C21.3883 23.4721 21.7637 23.3975 22.1428 23.3975C22.9085 23.3975 23.6428 23.7016 24.1842 24.243C24.7256 24.7844 25.0298 25.5187 25.0298 26.2844ZM23.2289 26.3738C23.2289 26.0857 23.1145 25.8095 22.9108 25.6058C22.7071 25.4021 22.4309 25.2877 22.1428 25.2877C21.8548 25.2877 21.5785 25.4021 21.3748 25.6058C21.1712 25.8095 21.0567 26.0857 21.0567 26.3738C21.0567 26.6618 21.1712 26.9381 21.3748 27.1417C21.5785 27.3454 21.8548 27.4599 22.1428 27.4599C22.4309 27.4599 22.7071 27.3454 22.9108 27.1417C23.1145 26.9381 23.2289 26.6618 23.2289 26.3738Z" fill="black"/>
<path d="M39.6493 29.1349C38.9188 29.3568 38.1283 29.274 37.4518 28.9046C36.7753 28.5352 36.2682 27.9095 36.0421 27.1651C35.8159 26.4207 35.8892 25.6187 36.2459 24.9354C36.6025 24.2521 37.2133 23.7435 37.9438 23.5215C38.6744 23.2996 39.4648 23.3824 40.1413 23.7518C40.8178 24.1212 41.3249 24.747 41.5511 25.4913C41.7772 26.2357 41.7039 27.0378 41.3473 27.7211C40.9906 28.4044 40.3798 28.9129 39.6493 29.1349ZM39.8827 26.2841C39.8827 25.9961 39.7682 25.7198 39.5645 25.5161C39.3609 25.3125 39.0846 25.198 38.7966 25.198C38.5085 25.198 38.2323 25.3125 38.0286 25.5161C37.8249 25.7198 37.7105 25.9961 37.7105 26.2841C37.7105 26.5722 37.8249 26.8484 38.0286 27.0521C38.2323 27.2558 38.5085 27.3702 38.7966 27.3702C39.0846 27.3702 39.3609 27.2558 39.5645 27.0521C39.7682 26.8484 39.8827 26.5722 39.8827 26.2841Z" fill="black"/>
<path d="M22.9091 39.6596C26.6362 43.1545 32.2128 43.1754 35.9944 39.7872C36.4063 39.4182 36.7788 39.1421 37.2777 39.4739C37.8127 39.829 37.8568 40.4718 37.3891 40.9267C32.974 45.2177 26.1964 45.2675 21.743 40.9986C21.531 40.7952 21.4022 40.6099 21.3566 40.4428C21.1918 39.8348 21.7975 39.2349 22.3974 39.3532C22.5529 39.3842 22.7235 39.4863 22.9091 39.6596Z" fill="black"/>
</svg>
